<svg class="MuiSvgIcon-root jss139" focusable="false" viewBox="0 0 1459.03 225.18" aria-hidden="true"><g fill="#fff"><path d="m474.19 203.68c.11-.7.18-1.38.23-2.08.07-.94.11-1.85.13-2.77 0-1.54 0-3.07 0-4.61 0-.59 0-1.14 0-1.72s0-1.32-.1-2h-16.15a11.06 11.06 0 0 1 .16 1.41v1.37 1.39l-.17 3-.1.74-32-15.23-1.17-.56a11.14 11.14 0 0 1 -1.18-.65 6.61 6.61 0 0 1 -.74-.53 4.15 4.15 0 0 1 -.52-.67 4.45 4.45 0 0 1 -.23-.79 8.7 8.7 0 0 1 0-.89 5.08 5.08 0 0 1 0-.67 3.07 3.07 0 0 1 .23-.95 2.17 2.17 0 0 1 .68-1 3.46 3.46 0 0 1 .84-.48l.28-.08a8.28 8.28 0 0 1 .89-.13c.63-.08 1.28-.12 1.93-.15 1.27-.07 2.53-.11 3.81-.15 2.39 0 4.78-.06 7.16-.08h3.5s2.53 0 3.79.12c.76 0 1.53.09 2.29.16a12.41 12.41 0 0 1 1.38.23 4.09 4.09 0 0 1 .84.26 2.55 2.55 0 0 1 .5.3 2.1 2.1 0 0 1 .24.27 1.86 1.86 0 0 1 .34.61 4.27 4.27 0 0 1 .22.87c.08.45.14.92.18 1.39.07.84.12 1.67.16 2.52l16.82-.05.09-3.62c0-1.2-.05-2.41-.12-3.6 0-.94-.16-1.88-.3-2.8a17.57 17.57 0 0 0 -.51-2.26 10.86 10.86 0 0 0 -.76-1.91 8.66 8.66 0 0 0 -1.67-2.26 10.6 10.6 0 0 0 -1.7-1.27 15.41 15.41 0 0 0 -1.4-.73 13.06 13.06 0 0 0 -2.06-.63c-.74-.17-1.49-.3-2.23-.42-1-.14-2-.24-2.94-.31-1.37-.1-2.75-.17-4.13-.2-2.09-.07-4.19-.12-6.27-.13-3.32 0-6.65 0-10 0-2.18 0-4.36 0-6.56.06-1.93 0-3.86.06-5.79.14-1.29 0-2.56.12-3.85.22-.95.07-1.88.18-2.81.34a18.21 18.21 0 0 0 -2.33.5 19.09 19.09 0 0 0 -1.93.66 13 13 0 0 0 -2.05 1.08 9.75 9.75 0 0 0 -2.1 1.9 9.4 9.4 0 0 0 -1.3 2.16 11.33 11.33 0 0 0 -.72 2.2 17 17 0 0 0 -.43 2.57c-.09 1-.14 2.07-.14 3.12 0 .77 0 1.53.06 2.29s.12 1.76.24 2.64a14.21 14.21 0 0 0 .43 2.06 8.63 8.63 0 0 0 .68 1.77 7.24 7.24 0 0 0 1.47 2 9.1 9.1 0 0 0 1.52 1.11 12 12 0 0 0 1.78.84l-.91.14c-1 .16-2 .36-3 .57-.77.21-1.57.43-2.33.7a13.49 13.49 0 0 0 -1.89.88 8.12 8.12 0 0 0 -1.71 1.26 7.62 7.62 0 0 0 -1.54 2 9.45 9.45 0 0 0 -.75 1.88 18.52 18.52 0 0 0 -.52 2.23c-.12.91-.23 1.81-.28 2.71-.06 1.17-.09 2.36-.09 3.52s0 2.55.13 3.82a30.73 30.73 0 0 0 .34 3.14 21.79 21.79 0 0 0 .56 2.59 12.24 12.24 0 0 0 .9 2.26 10.13 10.13 0 0 0 2 2.78 12 12 0 0 0 1.9 1.56 15.62 15.62 0 0 0 2.21 1.18 23.69 23.69 0 0 0 2.42.81c.92.23 1.86.42 2.8.57 1.18.18 2.36.34 3.56.44 1.58.16 3.15.24 4.75.32 2.19.09 4.39.15 6.58.18 3.07 0 6.1.05 9.14 0h3.83c2.56 0 5.11-.08 7.66-.17 1.91-.07 3.84-.18 5.75-.33 1.46-.11 2.92-.26 4.37-.46 1.16-.16 2.31-.38 3.44-.62a27.49 27.49 0 0 0 2.73-.76 15.93 15.93 0 0 0 2.35-1 11 11 0 0 0 2.42-1.7 12.53 12.53 0 0 0 1.74-2l13.16 6.67 6-12.1-14.68-7.11c.29-.63.43-1.24.55-1.88zm-20.39 7a4.43 4.43 0 0 1 -1.46.41c-.45.05-.89.08-1.32.11-.92 0-1.85.07-2.76.08-2.4 0-4.78.06-7.18.07l-5.55.09c-.85 0-1.72 0-2.58 0h-.49c-1.87 0-3.74 0-5.6 0q-1.82 0-3.63-.12c-.81 0-1.63-.1-2.43-.21-.57-.08-1.12-.19-1.69-.3a7.69 7.69 0 0 1 -1.22-.43 4.1 4.1 0 0 1 -.95-.56 3 3 0 0 1 -.85-1.16 4 4 0 0 1 -.33-1.06 12.27 12.27 0 0 1 -.17-1.34c0-.64 0-1.28 0-1.91v-.82c0-.7 0-1.39.09-2.08a11.53 11.53 0 0 1 .16-1.44 6.11 6.11 0 0 1 .31-1 2.91 2.91 0 0 1 .57-.9 2.65 2.65 0 0 1 .84-.63 4.51 4.51 0 0 1 1-.38c.46-.12.91-.22 1.38-.3q1-.14 2-.24l31.88 14.12z"></path><path d="m54.56 180.94a42.59 42.59 0 0 1 -.19 4.37 28.65 28.65 0 0 1 -1.76 7.81 15.45 15.45 0 0 1 -3.61 5.64 13.33 13.33 0 0 1 -9.13 3.65 18.6 18.6 0 0 1 -7.75-1.7 13.47 13.47 0 0 1 -6.75-7.27l-.43-1.05a22.53 22.53 0 0 1 -1.26-6.12c-.21-2.77-.3-5.51-.27-8.26l-.07-32.15-23.34.07.09 35.14a68.37 68.37 0 0 0 1.21 13.07 45.93 45.93 0 0 0 4.34 12.59 33.42 33.42 0 0 0 15.55 14.91 38.63 38.63 0 0 0 16.33 3.53 50.87 50.87 0 0 0 10.86-1.17 36.55 36.55 0 0 0 12.45-5.2 34.46 34.46 0 0 0 11.52-12.93 48.38 48.38 0 0 0 4.53-13.14 72.25 72.25 0 0 0 1.25-14.29v-178.44l-24.08.08z"></path><path d="m325.55.01h-82.69v225.16h82.69v-23.29l-58.82.18-.19-82.8 48.7-.13-.05-22.73-48.44.15-.18-73.33 58.98-.17z"></path><path d="m788.88 225.17h82.68v-23.29l-58.81.18-.2-82.8 48.7-.13-.04-22.73-48.44.15-.18-73.33 58.97-.17v-23.04h-82.68z"></path><path d="m524.74 23.52 36.82-.21v201.86h24.56v-201.86l37.13-.1v-23.2h-98.51z"></path><path d="m728.39 95.81h-44.65v-95.8h-24.41v225.15h24.64v-106.69h44.65v106.69h24.19v-225.15h-24.42z"></path><path d="m998.26 181a39.93 39.93 0 0 1 -.19 4.37 28.8 28.8 0 0 1 -1.75 7.81 15.43 15.43 0 0 1 -3.67 5.64 13.3 13.3 0 0 1 -9.13 3.65 18.56 18.56 0 0 1 -7.74-1.7 13.48 13.48 0 0 1 -6.76-7.28l-.43-1a22.58 22.58 0 0 1 -1.25-6.13q-.32-4.14-.28-8.25l-.06-32.25-23.29.08.09 35.14a69.18 69.18 0 0 0 1.2 13.07 45.77 45.77 0 0 0 4.35 12.58 33.37 33.37 0 0 0 15.55 14.91 38.33 38.33 0 0 0 16.33 3.53 51.48 51.48 0 0 0 10.85-1.17 36.39 36.39 0 0 0 12.45-5.2 34.56 34.56 0 0 0 11.53-12.93 48.79 48.79 0 0 0 4.53-13.15 72.9 72.9 0 0 0 1.24-14.28v-178.44l-24.07.09z"></path><path d="m1127.62 160.42v7.27q0 6.6-.41 13.19a42.55 42.55 0 0 1 -1 7 15.14 15.14 0 0 1 -2.75 5.9 17.24 17.24 0 0 1 -8.23 6.46 27 27 0 0 1 -9.9 1.77c-1.09 0-2.21-.05-3.3-.14a26.5 26.5 0 0 1 -7.76-1.7 16 16 0 0 1 -6.85-5 20.9 20.9 0 0 1 -3.44-6.66 42.16 42.16 0 0 1 -1.63-8.87c-.26-3.46-.38-7-.34-10.45l-.47-169.19h-23.63l.46 166.9c0 2.26 0 4.52.07 6.77a112.85 112.85 0 0 0 .85 13.23 53.82 53.82 0 0 0 3 12.35 37.37 37.37 0 0 0 12.72 17 40.59 40.59 0 0 0 10.71 5.71 60.28 60.28 0 0 0 35.86.94 40.33 40.33 0 0 0 13.45-6.78 38.75 38.75 0 0 0 11.13-13.88 52.33 52.33 0 0 0 4.39-14 74.14 74.14 0 0 0 1-13.8v-174.42h-24.43z"></path><path d="m1187.68.01h22.68v225.16h-22.68z"></path><path d="m1316 140.08.12 37.17c0 1.58 0 3.12-.15 4.68a31.92 31.92 0 0 1 -1.75 8.48 18.16 18.16 0 0 1 -4.11 6.63 16.65 16.65 0 0 1 -6.77 4 28.25 28.25 0 0 1 -8.12 1.14h-1.37a30.94 30.94 0 0 1 -8.2-1.24 17.55 17.55 0 0 1 -6.81-3.83 19.07 19.07 0 0 1 -4.32-6.13 38.55 38.55 0 0 1 -2.53-8.38 85.93 85.93 0 0 1 -1.3-12q-.33-7.81-.28-15.61l-.28-102.59a58.43 58.43 0 0 1 .67-9.53 33 33 0 0 1 2.49-8.66 19.19 19.19 0 0 1 4.85-6.58 18.6 18.6 0 0 1 7.27-3.77 32.11 32.11 0 0 1 9.14-1.15 20.4 20.4 0 0 1 8.22 1.72 15.65 15.65 0 0 1 7.81 7.39 19.5 19.5 0 0 1 1.27 2.93 27.63 27.63 0 0 1 1.13 5.61c.33 3.35.52 6.72.56 10.09.17 9.61.24 19.24.18 28.84l24-.06-.11-35.36a61.74 61.74 0 0 0 -1.81-13.87 40.27 40.27 0 0 0 -5.09-12 34.54 34.54 0 0 0 -12-11.4 42.54 42.54 0 0 0 -9.33-4.14 55.35 55.35 0 0 0 -16.69-2.46h-2.15a55.34 55.34 0 0 0 -13.24 2 39.08 39.08 0 0 0 -18.65 11.53l-1 1a37.17 37.17 0 0 0 -9.53 17.45 60.78 60.78 0 0 0 -1.49 11.02c-.17 4.17-.25 8.32-.18 12.48l.27 93.1c0 4.89.37 32.46.92 37.31a56.24 56.24 0 0 0 2.43 11.13 39.17 39.17 0 0 0 7.14 12.84 41.64 41.64 0 0 0 20.8 13.38 53.94 53.94 0 0 0 14.78 1.91c1.59 0 3.16-.06 4.72-.16a62.88 62.88 0 0 0 14.16-2.38 41.68 41.68 0 0 0 12.46-6 36 36 0 0 0 11.95-14.83 49 49 0 0 0 3.62-13.28 84.77 84.77 0 0 0 .6-11.37l-.11-37.09z"></path><path d="m203.89 30.32a42.66 42.66 0 0 0 -5.72-12.83 36 36 0 0 0 -7.29-8 40.87 40.87 0 0 0 -13.7-7.17 54.8 54.8 0 0 0 -16.53-2.32 64.87 64.87 0 0 0 -8.12.53 50.54 50.54 0 0 0 -15.26 4.37 39.78 39.78 0 0 0 -16.05 13.66 38.86 38.86 0 0 0 -4.36 8.54 45 45 0 0 0 -2.86 11.9c-.33 5-.17 10.33-.26 15.45l-.25 122.84a78.16 78.16 0 0 0 1.44 13.81 50.76 50.76 0 0 0 4.55 13.15 36.45 36.45 0 0 0 13.56 14.49 42.09 42.09 0 0 0 12.6 5 62.39 62.39 0 0 0 14.21 1.44 58.9 58.9 0 0 0 11.4-1.11 46.6 46.6 0 0 0 16-6.33 39.08 39.08 0 0 0 14.84-16.91 51 51 0 0 0 3.76-12.83 87.67 87.67 0 0 0 .93-13.64v-117.31a105.72 105.72 0 0 0 -.78-13.62 80 80 0 0 0 -2.11-13.11zm-20.41 145.22a53.27 53.27 0 0 1 -1.29 9.74 25 25 0 0 1 -3.19 7.72 19.71 19.71 0 0 1 -7.27 6.75 17.23 17.23 0 0 1 -3 1.48 23.34 23.34 0 0 1 -8.56 1.43 30.28 30.28 0 0 1 -3.68-.22 24 24 0 0 1 -10.65-4 18.94 18.94 0 0 1 -7.22-10.23 44.54 44.54 0 0 1 -1.54-8.23c-.38-4.29-.57-8.56-.54-12.86l-.27-116.12c0-1.72 0-3.47.18-5.18a35.54 35.54 0 0 1 2.05-9.46 21.1 21.1 0 0 1 4.87-7.65 18.79 18.79 0 0 1 5.79-4 26.84 26.84 0 0 1 20-.48 20.14 20.14 0 0 1 6.84 4.34 18.08 18.08 0 0 1 2.84 4.06 33.13 33.13 0 0 1 2.66 7.72 76.5 76.5 0 0 1 1.5 11.28c.27 4.9.4 9.83.37 14.75l.28 102.7c-.04 2.15-.07 4.31-.17 6.46z"></path><path d="m1459.03.01h-82.68v225.16h82.68v-23.29l-58.81.19-.2-82.81 48.7-.12-.04-22.73-48.45.14-.18-73.33 58.98-.17z"></path></g></svg>